<?xml version="1.0" encoding="UTF-8"?><!DOCTYPE svg PUBLIC "-//W3C//DTD SVG 1.1//EN" "http://www.w3.org/Graphics/SVG/1.1/DTD/svg11.dtd"><svg xmlns="http://www.w3.org/2000/svg" xmlns:xlink="http://www.w3.org/1999/xlink"><defs/><symbol id="breadcrumbs-home" viewBox="0 0 20.08 19.63"><title>breadcrumbs-home</title><polyline points="3.63 10.83 3.63 19.13 16.67 19.13 16.59 7.12 19.58 10.04 9.79 0.5 0.5 10.08" style="fill:none;stroke-linecap:round;stroke-linejoin:round"/></symbol><symbol id="breadcrumbs-separator" viewBox="0 0 7 9.67"><title>breadcrumb separator</title><polyline points="0.5 9.17 6.5 4.67 0.5 0.5" style="fill:none;stroke-linecap:round;stroke-linejoin:round"/></symbol><symbol id="close" viewBox="0 0 48 48"><title>close</title><path d="M38,12.82,35.18,10,24,21.18,12.82,10,10,12.82,21.18,24,10,35.18,12.82,38,24,26.82,35.18,38,38,35.18,26.82,24Z" style="stroke-miterlimit:10"/><path d="M0,0H48V48H0Z" style="fill:none"/></symbol><symbol id="facebook" viewBox="0 0 16 16">
<path fill="#000000" d="M9.5 3h2.5v-3h-2.5c-1.93 0-3.5 1.57-3.5 3.5v1.5h-2v3h2v8h3v-8h2.5l0.5-3h-3v-1.5c0-0.271 0.229-0.5 0.5-0.5z"/>
</symbol><symbol id="map-pin" viewBox="0 0 19.3 24.47"><title>map-pin</title><path d="M17.5,15.6a9.28,9.28,0,0,0,1.8-5.5A9.15,9.15,0,0,0,1,10.1a9.76,9.76,0,0,0,1.8,5.5l7.3,8.6Z" transform="translate(-0.5 -0.5)" style="fill:none;stroke-miterlimit:10"/><circle cx="9.6" cy="9.6" r="3.8" style="fill:none;stroke-miterlimit:10"/></symbol><symbol id="move-left" viewBox="0 0 21.7 39"><title>move-left</title><path d="M19.7,39,.1,19.5l2.1-2.1L21.8,36.9,19.7,39Z" transform="translate(-0.1 0)" style="fill:#cfcfcf"/><path d="M21.7,2.1,2.2,21.7.1,19.6,19.6,0l2.1,2.1Z" transform="translate(-0.1 0)" style="fill:#cfcfcf"/></symbol><symbol id="move-right" viewBox="0 0 21.7 39.1"><title>move-right</title><path d="M2.1,0,21.7,19.6l-2.1,2.1L0,2.1,2.1,0Z" transform="translate(0 0)" style="fill:#cfcfcf"/><path d="M0,37,19.6,17.4l2.1,2.1L2.1,39.1,0,37Z" transform="translate(0 0)" style="fill:#cfcfcf"/></symbol><symbol id="search_new" viewBox="0 0 13.87 13.88"><title>search_new</title><path d="M13.5,13.5a1.27,1.27,0,0,1-1.8,0L9.4,11.2A6.09,6.09,0,1,1,6.1,0a6.06,6.06,0,0,1,6.1,6.1,6.39,6.39,0,0,1-1,3.3l2.3,2.3A1.27,1.27,0,0,1,13.5,13.5ZM6.1,1.7A4.27,4.27,0,0,0,1.8,6a4.27,4.27,0,0,0,4.3,4.3A4.27,4.27,0,0,0,10.4,6,4.33,4.33,0,0,0,6.1,1.7Z" transform="translate(0)" style="fill:#b0b0b0"/></symbol><symbol id="twitter" viewBox="0 0 16 16">
<path fill="#000000" d="M16 3.538c-0.588 0.263-1.222 0.438-1.884 0.516 0.678-0.406 1.197-1.050 1.444-1.816-0.634 0.375-1.338 0.65-2.084 0.797-0.6-0.638-1.453-1.034-2.397-1.034-1.813 0-3.281 1.469-3.281 3.281 0 0.256 0.028 0.506 0.084 0.747-2.728-0.138-5.147-1.444-6.766-3.431-0.281 0.484-0.444 1.050-0.444 1.65 0 1.138 0.578 2.144 1.459 2.731-0.538-0.016-1.044-0.166-1.488-0.409 0 0.013 0 0.028 0 0.041 0 1.591 1.131 2.919 2.634 3.219-0.275 0.075-0.566 0.116-0.866 0.116-0.212 0-0.416-0.022-0.619-0.059 0.419 1.303 1.631 2.253 3.066 2.281-1.125 0.881-2.538 1.406-4.078 1.406-0.266 0-0.525-0.016-0.784-0.047 1.456 0.934 3.181 1.475 5.034 1.475 6.037 0 9.341-5.003 9.341-9.341 0-0.144-0.003-0.284-0.009-0.425 0.641-0.459 1.197-1.038 1.637-1.697z"/>
</symbol></svg>